<svg width="532" height="501" viewBox="0 0 532 501" fill="none" xmlns="http://www.w3.org/2000/svg">
<rect width="532" height="501" rx="70" fill="#103C1F"/>
<path d="M131 344.179C131 312.147 156.967 286.179 189 286.179H192.517V355C192.517 357.761 190.278 360 187.517 360H136C133.239 360 131 357.761 131 355V344.179Z" fill="#D6E264"/>
<path d="M197.438 267.899C197.438 235.866 223.406 209.899 255.438 209.899H278.64V355C278.64 357.761 276.402 360 273.64 360H202.438C199.677 360 197.438 357.761 197.438 355V267.899Z" fill="#D6E264"/>
<path d="M283.562 199C283.562 166.967 309.529 141 341.562 141H401.674V355C401.674 357.761 399.436 360 396.674 360H288.562C285.8 360 283.562 357.761 283.562 355V199Z" fill="#D6E264"/>
</svg>
